<?xml version="1.0" encoding="utf-8"?>
<!-- Generator: Adobe Illustrator 26.0.2, SVG Export Plug-In . SVG Version: 6.00 Build 0)  -->
<svg version="1.1" xmlns="http://www.w3.org/2000/svg" xmlns:xlink="http://www.w3.org/1999/xlink" x="0px" y="0px"
	 viewBox="0 0 90 30" style="enable-background:new 0 0 90 30;" xml:space="preserve">
<style type="text/css">
	.st0{fill:#1A1918;}
</style>
<g id="Paths">
	<g transform="translate(0.000000, 281.859985)">
		<path class="st0" d="M40.6-261.3c-0.1,0-0.3,0-0.4-0.2L36-267v5.7h-1v-7.1c0-0.3,0.2-0.5,0.5-0.5c0.2,0,0.3,0,0.4,0.2l4.3,5.6
			v-5.7h1v7.1C41.1-261.5,40.9-261.3,40.6-261.3"/>
		<path class="st0" d="M48.7-261.2c-1,0-2-0.2-2.9-0.6l0.2-0.8c0.9,0.3,1.8,0.5,2.7,0.5c1.2,0,1.9-0.4,1.9-1c0-0.6-0.5-0.8-2.2-1.7
			s-2.4-1.3-2.4-2.3c0-1.3,1-1.8,2.8-1.8c0.8,0,1.9,0.2,2.6,0.4l-0.2,0.8c-0.7-0.2-1.7-0.3-2.4-0.3c-1.3,0-1.8,0.2-1.8,0.9
			c0,0.6,0.4,0.9,2.2,1.7c1.9,0.9,2.4,1.3,2.4,2.3C51.6-261.8,50.3-261.2,48.7-261.2"/>
		<path class="st0" d="M56.2-268.8h1v7.5h-1V-268.8z"/>
		<path class="st0" d="M65.7-264.7h-2.5v2.5h2.5c0.8,0,1.4-0.5,1.4-1.3C67.1-264.2,66.6-264.7,65.7-264.7 M65.3-267.9h-2v2.4h2
			c0.8,0,1.4-0.5,1.4-1.2S66.1-267.9,65.3-267.9 M65.8-261.3h-3c-0.3,0-0.5-0.2-0.5-0.5v-6.5c0-0.3,0.2-0.5,0.5-0.5h2.5
			c1.5,0,2.4,0.7,2.4,1.9c0,0.6-0.4,1.2-0.9,1.6c0.8,0.3,1.4,1,1.4,1.8C68.1-262.3,67.2-261.3,65.8-261.3"/>
		<path class="st0" d="M73-261.3c-0.3,0-0.5-0.2-0.5-0.5v-7h1v6.6h4v0.9L73-261.3L73-261.3z"/>
		<path class="st0" d="M84.4-261.2c-2.1,0-3.3-0.8-3.3-2.3c0-0.7,0.4-1.4,1.2-1.8c-0.6-0.4-1-1-1-1.6c0-1.4,1.1-2.1,3.1-2.1
			c0.7,0,1.6,0.1,2.4,0.3l-0.1,0.8c-0.8-0.1-1.6-0.2-2.4-0.2c-1.3,0-2,0.4-2,1.2c0,0.7,0.6,1.2,1.5,1.2h1.7c0.2,0,0.4,0.2,0.4,0.4
			c0,0.2-0.2,0.4-0.4,0.4h-1.9c-1,0-1.6,0.5-1.6,1.2c0,1.1,1,1.4,2.3,1.4c0.7,0,1.6-0.1,2.4-0.3l0.1,0.8
			C86.1-261.3,85.2-261.2,84.4-261.2"/>
		<path class="st0" d="M27.5-267.4l1.8,4.4l-2.7-2.1L27.5-267.4z M30.6-261.9l-2.7-6.6c-0.1-0.2-0.2-0.3-0.4-0.3s-0.4,0.1-0.4,0.3
			l-3,7.3h1l1.2-3l3.5,2.9c0.1,0.1,0.2,0.2,0.4,0.2c0.3,0,0.5-0.2,0.5-0.5C30.7-261.8,30.7-261.9,30.6-261.9L30.6-261.9z"/>
	</g>
	<g>
		<polygon points="9.4,15.5 13.1,18.4 10.6,12.4 		"/>
		<path d="M10.9,5.8c-5.6,0-10.1,4.5-10.1,10.1S5.3,26,10.9,26C16.5,26,21,21.4,21,15.9S16.5,5.8,10.9,5.8z M14.4,20.8
			c-0.2,0-0.3-0.1-0.5-0.2l-4.9-4l-1.6,4.1H5.9l4.2-10c0.1-0.3,0.3-0.4,0.6-0.4c0.3,0,0.5,0.1,0.6,0.4l3.8,9.1
			c0.1,0.1,0.1,0.2,0.1,0.3C15.1,20.5,14.7,20.8,14.4,20.8z"/>
	</g>
</g>
</svg>
