<?xml version="1.0" encoding="utf-8"?>
<!-- Generator: Adobe Illustrator 26.0.2, SVG Export Plug-In . SVG Version: 6.00 Build 0)  -->
<svg version="1.1" id="Layer_1" xmlns="http://www.w3.org/2000/svg" xmlns:xlink="http://www.w3.org/1999/xlink" x="0px" y="0px"
	 viewBox="0 0 90 30" style="enable-background:new 0 0 90 30;" xml:space="preserve">
<style type="text/css">
	.st0{fill:#FEFEFE;}
	.st1{fill:#75C5E3;}
	.st2{fill:#FFFFFF;}
	.st3{fill:#3F3F3F;}
</style>
<g id="Layer_4">
	<path class="st0" d="M6.7,12.8c-0.1-0.3,0-0.4,0.3-0.5c0.5-0.2,0.8-0.4,1.3-0.6c-0.5-0.3-0.9-0.5-1.4-0.6c-0.1,0-0.1,0-0.2-0.1
		c0-0.1-0.1-0.3,0-0.4c0-0.1,0.1,0,0.2,0.1c0.6,0.3,1,0.5,1.6,0.7c0.1,0,0.2,0.1,0.2,0.3c0,0.1-0.1,0.2-0.2,0.3
		C7.8,12.3,7.2,12.5,6.7,12.8z"/>
	<path class="st0" d="M9.9,13.3c-0.3,0-0.6,0-0.9,0c-0.1,0-0.2,0-0.2-0.1c0-0.1,0.1-0.1,0.2-0.1c0.6,0,1.2,0,1.7,0
		c0.1,0,0.2,0,0.2,0.1c0,0.1-0.1,0.1-0.2,0.1C10.5,13.3,10.2,13.3,9.9,13.3z"/>
	<circle class="st1" cx="11.6" cy="14.9" r="11"/>
	<path class="st2" d="M18.4,21.3H4.7c-0.1,0-0.3-0.1-0.3-0.3V9.3C4.4,9.2,4.5,9,4.7,9h13.8c0.1,0,0.3,0.1,0.3,0.3v11.8
		C18.6,21.2,18.6,21.3,18.4,21.3z"/>
	<g>
		<path d="M5.8,11.9L7,11.3v0.2L5.9,12l0,0L7,12.5v0.2l-1.3-0.6C5.8,12,5.8,11.9,5.8,11.9z"/>
		<path d="M7.4,12.5c0.1,0,0.2,0.1,0.4,0.1s0.3-0.1,0.3-0.2c0-0.1-0.1-0.2-0.3-0.3c-0.3-0.1-0.4-0.2-0.4-0.4c0-0.2,0.2-0.4,0.5-0.4
			c0.1,0,0.3,0,0.4,0.1l-0.1,0.2c-0.1,0-0.2-0.1-0.3-0.1c-0.2,0-0.2,0.1-0.2,0.2c0,0.1,0.1,0.2,0.3,0.2c0.3,0.1,0.4,0.2,0.4,0.4
			c0,0.3-0.2,0.4-0.5,0.4C7.7,12.6,7.6,12.6,7.4,12.5L7.4,12.5z"/>
		<path d="M9.4,12.6c-0.1,0-0.2,0.1-0.4,0.1c-0.4,0-0.6-0.3-0.6-0.6s0.3-0.7,0.7-0.7c0.2,0,0.3,0,0.4,0.1l-0.1,0.2
			c-0.1,0-0.2-0.1-0.3-0.1c-0.3,0-0.5,0.2-0.5,0.5c0,0.3,0.2,0.5,0.5,0.5c0.1,0,0.2,0,0.3-0.1V12.6z"/>
		<path d="M9.7,11.8c0-0.2,0-0.3,0-0.4h0.2v0.3l0,0c0.1-0.2,0.2-0.3,0.4-0.3c0,0,0,0,0.1,0v0.2c0,0,0,0-0.1,0
			c-0.2,0-0.3,0.1-0.4,0.3V12v0.7H9.6L9.7,11.8L9.7,11.8z"/>
		<path d="M10.9,11c0,0.1-0.1,0.2-0.2,0.2s-0.2-0.1-0.2-0.2c0-0.1,0.1-0.2,0.2-0.2S10.9,10.9,10.9,11z M10.6,12.7v-1.3h0.3v1.3H10.6
			z"/>
		<path d="M11.3,11.8c0-0.2,0-0.3,0-0.5h0.2v0.2l0,0c0.1-0.2,0.3-0.3,0.5-0.3c0.4,0,0.6,0.3,0.6,0.6c0,0.5-0.3,0.7-0.6,0.7
			c-0.2,0-0.4-0.1-0.4-0.2l0,0v0.7h-0.3L11.3,11.8L11.3,11.8z M11.6,12.2L11.6,12.2c0,0.3,0.2,0.4,0.4,0.4c0.3,0,0.4-0.2,0.4-0.6
			c0-0.3-0.2-0.5-0.4-0.5c-0.2,0-0.4,0.1-0.4,0.3v0.1V12.2z"/>
		<path d="M13.1,11v0.4h0.4v0.2h-0.4v0.7c0,0.2,0,0.3,0.2,0.3c0.1,0,0.1,0,0.2,0v0.2c0,0-0.1,0-0.2,0c-0.1,0-0.2,0-0.3-0.1
			c-0.1-0.1-0.1-0.2-0.1-0.4v-0.7h-0.2v-0.2h0.2V11L13.1,11z"/>
		<path d="M15,12.1l-1.3,0.6v-0.2l1.1-0.6l0,0l-1.1-0.6v-0.2l1.3,0.6V12.1z"/>
	</g>
	<g>
		<path d="M5.8,15L7,14.4v0.2l-1.1,0.6l0,0L7,15.7v0.2l-1.3-0.6V15z"/>
		<path d="M7.4,15.6c0.1,0,0.2,0.1,0.4,0.1s0.3-0.1,0.3-0.2c0-0.1-0.1-0.2-0.3-0.3c-0.3,0-0.4-0.2-0.4-0.3c0-0.2,0.2-0.4,0.5-0.4
			c0.1,0,0.3,0,0.4,0.1l-0.1,0.2c-0.1,0-0.2-0.1-0.3-0.1c-0.2,0-0.2,0.1-0.2,0.2c0,0.1,0.1,0.2,0.3,0.2c0.3,0.1,0.4,0.2,0.4,0.4
			c0,0.3-0.2,0.4-0.5,0.4c-0.2,0-0.3,0-0.4-0.1L7.4,15.6z"/>
		<path d="M9.4,15.8c0,0.1-0.2,0.1-0.4,0.1c-0.4,0-0.6-0.3-0.6-0.6c0-0.4,0.3-0.7,0.7-0.7c0.2,0,0.3,0,0.4,0.1l-0.1,0.2
			c-0.1,0-0.2-0.1-0.3-0.1c-0.3,0-0.5,0.2-0.5,0.5s0.2,0.5,0.5,0.5c0.1,0,0.2,0,0.3-0.1V15.8z"/>
		<path d="M9.7,14.9c0-0.2,0-0.3,0-0.4h0.2v0.3l0,0c0.1-0.2,0.2-0.3,0.4-0.3c0,0,0,0,0.1,0v0.2c0,0,0,0-0.1,0
			c-0.2,0-0.3,0.1-0.4,0.3v0.1v0.7H9.6L9.7,14.9L9.7,14.9z"/>
		<path d="M10.9,14.2c0,0.1-0.1,0.2-0.2,0.2s-0.2-0.1-0.2-0.2s0.1-0.2,0.2-0.2S10.9,14.1,10.9,14.2z M10.6,15.9v-1.3h0.3v1.3H10.6z"
			/>
		<path d="M11.3,14.9c0-0.2,0-0.3,0-0.5h0.2v0.2l0,0c0.1-0.2,0.3-0.3,0.5-0.3c0.4,0,0.6,0.3,0.6,0.6c0,0.5-0.3,0.7-0.6,0.7
			c-0.2,0-0.4-0.1-0.4-0.2l0,0v0.7h-0.3L11.3,14.9L11.3,14.9z M11.6,15.3L11.6,15.3c0,0.3,0.2,0.4,0.4,0.4c0.3,0,0.4-0.2,0.4-0.6
			c0-0.3-0.2-0.5-0.4-0.5c-0.2,0-0.4,0.1-0.4,0.3V15V15.3z"/>
		<path d="M13.1,14.2v0.4h0.4v0.2h-0.4v0.7c0,0.2,0,0.3,0.2,0.3c0.1,0,0.1,0,0.2,0V16c0,0-0.1,0-0.2,0c-0.1,0-0.2,0-0.3-0.1
			c-0.1-0.1-0.1-0.3-0.1-0.4v-0.7h-0.2v-0.2h0.2v-0.4L13.1,14.2z"/>
		<path d="M15,15.2l-1.2,0.6v-0.2L15,15.2L15,15.2l-1.2-0.6v-0.2l1.3,0.6L15,15.2L15,15.2z"/>
	</g>
	<g>
		<path d="M5.8,18.3L7,17.7v0.2l-1.1,0.6l0,0L7,19v0.2l-1.3-0.6C5.8,18.5,5.8,18.3,5.8,18.3z"/>
		<path d="M7.4,18.9c0.1,0,0.2,0.1,0.4,0.1s0.3-0.1,0.3-0.2c0-0.1-0.1-0.2-0.3-0.3c-0.3-0.1-0.4-0.2-0.4-0.4c0-0.2,0.2-0.4,0.5-0.4
			c0.1,0,0.3,0,0.4,0.1l-0.1,0.2C8.1,18.1,8,18,7.9,18c-0.2,0-0.2,0.1-0.2,0.2c0,0.1,0.1,0.2,0.3,0.2c0.3,0.1,0.4,0.2,0.4,0.4
			c0,0.3-0.2,0.4-0.5,0.4C7.7,19.1,7.6,19.1,7.4,18.9L7.4,18.9z"/>
		<path d="M9.4,19.1c-0.1,0-0.2,0.1-0.4,0.1c-0.4,0-0.6-0.3-0.6-0.6c0-0.4,0.3-0.7,0.7-0.7c0.2,0,0.3,0,0.4,0.1l-0.1,0.2
			c-0.1,0-0.2-0.1-0.3-0.1c-0.3,0-0.5,0.2-0.5,0.5s0.2,0.5,0.5,0.5c0.1,0,0.2,0,0.3-0.1V19.1z"/>
		<path d="M9.7,18.3c0-0.2,0-0.3,0-0.4h0.2v0.3l0,0c0.1-0.2,0.2-0.3,0.4-0.3c0,0,0,0,0.1,0v0.2c0,0,0,0-0.1,0
			c-0.2,0-0.3,0.1-0.4,0.3v0.1v0.7H9.6L9.7,18.3L9.7,18.3z"/>
		<path d="M10.9,17.4c0,0.1-0.1,0.2-0.2,0.2s-0.2-0.1-0.2-0.2c0-0.1,0.1-0.2,0.2-0.2S10.9,17.3,10.9,17.4z M10.6,19.2v-1.3h0.3v1.3
			H10.6z"/>
		<path d="M11.3,18.3c0-0.2,0-0.3,0-0.5h0.2V18l0,0c0.1-0.2,0.3-0.3,0.5-0.3c0.4,0,0.6,0.3,0.6,0.6c0,0.5-0.3,0.7-0.6,0.7
			c-0.2,0-0.4-0.1-0.4-0.2l0,0v0.7h-0.3L11.3,18.3L11.3,18.3z M11.6,18.6L11.6,18.6c0,0.3,0.2,0.4,0.4,0.4c0.3,0,0.4-0.2,0.4-0.6
			c0-0.3-0.2-0.5-0.4-0.5c-0.2,0-0.4,0.1-0.4,0.3v0.1V18.6z"/>
		<path d="M13.1,17.4v0.4h0.4V18h-0.4v0.7c0,0.2,0,0.3,0.2,0.3c0.1,0,0.1,0,0.2,0v0.2c0,0-0.1,0-0.2,0c-0.1,0-0.2,0-0.3-0.1
			c-0.1-0.1-0.1-0.2-0.1-0.4V18h-0.2v-0.2h0.2v-0.4H13.1z"/>
		<path d="M15,18.5l-1.3,0.6V19l1.1-0.6l0,0l-1.1-0.6v-0.2l1.3,0.6V18.5z"/>
	</g>
	<path class="st3" d="M26.6,4.3h1.8V11h4.1v1.7h-6V4.3z"/>
	<path class="st3" d="M33.8,3.9h1.9v1.7h-1.9V3.9z M33.8,6.3h1.8v6.4h-1.8V6.3z"/>
	<path class="st3" d="M39.2,11.8v0.8h-1.8V3.9h1.8v3.2c0.5-0.6,1-1,2-1c1.5,0,2.9,1.2,2.9,3.3l0,0c0,2.1-1.4,3.3-2.9,3.3
		C40.2,12.8,39.6,12.4,39.2,11.8z M42.3,9.5L42.3,9.5c0-1.1-0.7-1.8-1.6-1.8s-1.6,0.7-1.6,1.7l0,0c0,1.1,0.7,1.7,1.6,1.7
		C41.6,11.3,42.3,10.5,42.3,9.5z"/>
	<path class="st3" d="M45.4,6.3h1.8v1.3c0.4-0.9,1-1.5,2-1.4v1.9h-0.1c-1.2,0-1.9,0.7-1.9,2.3v2.4h-1.8L45.4,6.3L45.4,6.3z"/>
	<path class="st3" d="M49.8,10.8L49.8,10.8c0-1.4,1.1-2,2.6-2c0.6,0,1.1,0.1,1.6,0.3V8.9c0-0.7-0.5-1.2-1.4-1.2
		c-0.6,0-1.2,0.1-1.7,0.4l-0.5-1.4c0.7-0.3,1.4-0.6,2.5-0.6c1,0,1.7,0.3,2.2,0.7c0.5,0.5,0.6,1.2,0.6,2v3.7h-1.7v-0.6
		c-0.5,0.5-1,0.8-1.9,0.8C50.8,12.8,49.8,12.1,49.8,10.8z M53.9,10.4v-0.4c-0.3-0.2-0.7-0.3-1.2-0.3c-0.7,0-1.3,0.3-1.3,0.9l0,0
		c0,0.5,0.4,0.7,1,0.7C53.4,11.5,53.9,11.1,53.9,10.4z"/>
	<path class="st3" d="M57.2,6.3h1.8v1.3c0.4-0.9,1-1.5,2-1.4v1.9H61c-1.3-0.1-2,0.6-2,2.2v2.4h-1.8L57.2,6.3L57.2,6.3z"/>
	<path class="st3" d="M66.4,6.3h1.9l-2.5,6.5c-0.5,1.3-1,1.7-2.1,1.7c-0.6,0-1.1-0.2-1.7-0.5l0.6-1.3c0.3,0.2,0.6,0.3,0.7,0.3
		c0.3,0,0.5-0.1,0.6-0.5l-2.5-6.4h1.9l1.5,4.3L66.4,6.3z"/>
	<path class="st3" d="M26,22.4l1.1-1.3c0.7,0.6,1.6,1,2.5,1c0.7,0,1.2-0.3,1.2-0.8l0,0c0-0.5-0.3-0.7-1.7-1.1
		c-1.7-0.5-2.8-0.9-2.8-2.6l0,0c0-1.5,1.2-2.5,2.9-2.5c1.2,0,2.3,0.4,3.1,1.1l-0.9,1.4c-0.7-0.6-1.5-0.8-2.2-0.8s-1.1,0.4-1.1,0.7
		l0,0c0,0.6,0.4,0.7,1.8,1.1c1.7,0.5,2.7,1,2.7,2.5l0,0c0,1.7-1.3,2.6-3,2.6C28.2,23.8,26.9,23.3,26,22.4z"/>
	<path class="st3" d="M33.7,20.5L33.7,20.5c0-1.8,1.4-3.3,3.3-3.3c1.2,0,1.9,0.4,2.6,1.1l-1.1,1.2c-0.4-0.5-0.8-0.7-1.5-0.7
		c-0.9,0-1.6,0.8-1.6,1.7l0,0c0,1,0.6,1.7,1.7,1.7c0.6,0,1-0.3,1.5-0.6l1.1,1.1c-0.6,0.6-1.3,1.2-2.6,1.2
		C35.1,23.8,33.7,22.3,33.7,20.5z"/>
	<path class="st3" d="M40.8,17.2h1.8v1.3c0.4-0.9,1-1.5,2-1.4v1.9h-0.1c-1.2,0-1.9,0.7-1.9,2.3v2.4h-1.8L40.8,17.2L40.8,17.2z"/>
	<path class="st3" d="M45.9,14.9h1.9v1.7h-1.9V14.9z M45.9,17.2h1.8v6.4h-1.8V17.2z"/>
	<path class="st3" d="M49.5,17.2h1.8v0.9c0.5-0.6,1-1,2-1c1.5,0,2.9,1.2,2.9,3.3l0,0c0,2.1-1.4,3.3-2.9,3.3c-1,0-1.6-0.5-2-0.9v2.8
		h-1.8C49.5,25.6,49.5,17.2,49.5,17.2z M54.4,20.5L54.4,20.5c0-1.1-0.7-1.8-1.6-1.8s-1.6,0.7-1.6,1.7l0,0c0,1.1,0.7,1.7,1.6,1.7
		C53.6,22.2,54.4,21.6,54.4,20.5z"/>
	<path class="st3" d="M57.8,21.8v-3H57v-1.6h0.7v-1.7h1.8v1.7h1.5v1.6h-1.5v2.8c0,0.5,0.2,0.6,0.6,0.6c0.4,0,0.6-0.1,0.9-0.2v1.5
		c-0.4,0.2-0.8,0.4-1.5,0.4C58.6,23.8,57.8,23.3,57.8,21.8z"/>
</g>
</svg>
