<?xml version="1.0" encoding="utf-8"?>
<!-- Generator: Adobe Illustrator 26.0.2, SVG Export Plug-In . SVG Version: 6.00 Build 0)  -->
<svg version="1.1" xmlns="http://www.w3.org/2000/svg" xmlns:xlink="http://www.w3.org/1999/xlink" x="0px" y="0px"
	 viewBox="0 0 90 30" style="enable-background:new 0 0 90 30;" xml:space="preserve">
<style type="text/css">
	.st0{display:none;}
	.st1{display:inline;fill:#D63A2E;}
	.st2{display:inline;fill:#F34336;}
	.st3{display:inline;fill:#D73A2E;}
	.st4{display:inline;fill:#F3584D;}
	.st5{display:inline;}
	.st6{fill:#D63A2E;}
	.st7{fill:#D5BA33;}
	.st8{fill:#FED93F;}
	.st9{fill:#EAEAE9;}
	.st10{fill:#D3B523;}
	.st11{fill:#D3B41F;}
	.st12{fill:#FEFEFC;}
	.st13{fill:#FED52A;}
</style>
<g id="Layer_4">
	<path class="st7" d="M10.8,3.4c3.1,0,6.2,0,9.3,0c0.2,0,0.3,0.1,0.3,0.3c-0.3,2.9-0.5,5.7-0.8,8.6c-0.2,2.5-0.4,5-0.7,7.5
		c-0.1,0.9-0.2,1.9-0.3,2.8c0,0.2-0.1,0.2-0.3,0.3c-2.4,0.7-4.9,1.4-7.3,2.1c-0.2,0-0.3,0.1-0.5,0c-2.5-0.7-4.9-1.4-7.4-2.1
		c-0.2,0-0.2-0.1-0.2-0.3c-0.2-2.6-0.5-5.2-0.7-7.8C2,12.1,1.8,9.2,1.5,6.4C1.4,5.5,1.4,4.5,1.2,3.6c0-0.2,0.1-0.2,0.3-0.2
		C4.6,3.4,7.7,3.4,10.8,3.4z M10,7.6c0-0.1-0.1-0.1-0.2-0.1c-0.5,0-1,0-1.5,0c-0.1,0-0.2,0-0.2,0.1c0,3.2,0,6.5,0,9.7
		c0,0.2-0.1,0.3-0.3,0.2c-0.5-0.2-1-0.3-1.6-0.4c-0.6-0.2-1.2-0.4-1.9-0.5c-0.1,0-0.1,0.1-0.1,0.2c0,0.6,0,1.2,0,1.8
		c0,0.1,0,0.2,0.1,0.2c0.1,0,0.2,0.1,0.3,0.1c1.7,0.5,3.5,1,5.2,1.5c0.2,0,0.1-0.2,0.1-0.3c0-1.6,0-3.2,0-4.7c0-2.5,0-4.9,0-7.4
		C10.1,7.8,10.2,7.6,10,7.6L10,7.6z M10.8,14.3c0,3,0,5.9,0,8.9c0,0.2,0,0.3,0.3,0.3c1.8-0.5,3.6-1,5.4-1.5c0.4-0.1,0.7-0.1,0.7-0.7
		c0-0.8,0.1-1.6,0.2-2.4c0-0.5,0.1-0.9,0.1-1.4c0.1-0.7,0.1-1.5,0.2-2.2c0.1-0.7,0.1-1.4,0.2-2.1c0.1-0.8,0.1-1.6,0.2-2.4
		c0-0.5,0.1-0.9,0.1-1.4c0.1-0.8,0.1-1.5,0.2-2.3c0-0.5,0.1-1,0.1-1.5c0-0.4,0.1-0.4-0.3-0.4c-2.4,0-4.7,0-7.1,0
		c-0.3,0-0.3,0.1-0.3,0.3C10.8,8.4,10.8,11.3,10.8,14.3z"/>
	<path class="st8" d="M10.8,14.3c0-3,0-5.9,0-8.9c0-0.3,0.1-0.3,0.3-0.3c2.4,0,4.7,0,7.1,0c0.4,0,0.3,0,0.3,0.4
		c-0.1,0.5-0.1,1-0.1,1.5c-0.1,0.8-0.1,1.5-0.2,2.3c0,0.5-0.1,0.9-0.1,1.4c-0.1,0.8-0.1,1.6-0.2,2.4c-0.1,0.7-0.1,1.4-0.2,2.1
		c-0.1,0.7-0.1,1.5-0.2,2.2c0,0.5-0.1,0.9-0.1,1.4c-0.1,0.8-0.2,1.6-0.2,2.4c0,0.6-0.3,0.6-0.7,0.7c-1.8,0.5-3.6,1-5.4,1.5
		c-0.3,0.1-0.3,0-0.3-0.3C10.8,20.2,10.8,17.2,10.8,14.3z M11.6,7.6c-0.1,0.1,0,0.2,0,0.4c0,2.5,0,4.9,0,7.4c0,0.6,0,0.6,0.6,0.5
		c1-0.2,1.9-0.3,2.9-0.5c0.2,0,0.3,0,0.3,0.2c0,0.5-0.1,0.9-0.1,1.4c0,0.2-0.1,0.3-0.3,0.3c-1.1,0.3-2.1,0.6-3.2,0.8
		c-0.2,0-0.2,0.1-0.2,0.3c0,0.6,0,1.1,0,1.7c0,0.3,0.1,0.3,0.3,0.2c1.5-0.4,2.9-0.8,4.4-1.2c0.5-0.1,0.5-0.1,0.5-0.6
		c0-0.1,0-0.2,0-0.3c0.1-1.7,0.3-3.5,0.4-5.2c0-0.2,0-0.2-0.2-0.2c-1.1,0.1-2.2,0.3-3.3,0.4c-0.2,0-0.3,0-0.3-0.2c0-1,0-1.9,0-2.9
		c0-0.2,0.1-0.3,0.3-0.3c1.2,0,2.3,0,3.5,0c0.2,0,0.3-0.1,0.3-0.3c0-0.4,0.1-0.9,0.1-1.3c0-0.2,0.1-0.5,0-0.7c0-0.1-0.2-0.1-0.2-0.1
		c-1.8,0-3.7,0-5.5,0C11.7,7.5,11.6,7.4,11.6,7.6z"/>
	<path class="st9" d="M10,20.3c-1.7-0.5-3.5-1-5.2-1.5c-0.1,0-0.2-0.1-0.3-0.1c0-0.7,0-1.5,0-2.2c0.6,0.1,1.2,0.3,1.9,0.5
		c0.5,0.1,1,0.3,1.6,0.4c0.2,0.1,0.3,0,0.3-0.2c0-3.2,0-6.5,0-9.7c0.6,0,1.2,0,1.9,0l0,0c0,4.2,0,8.3,0,12.5
		C10,20.1,10,20.2,10,20.3z"/>
	<path class="st10" d="M10,20.3c0-0.1,0-0.2,0-0.3c0-4.2,0-8.3,0-12.5c0.2,0.1,0.1,0.2,0.1,0.3c0,2.5,0,4.9,0,7.4c0,1.6,0,3.2,0,4.7
		C10.1,20.1,10.2,20.3,10,20.3z"/>
	<path class="st11" d="M4.5,16.6c0,0.7,0,1.5,0,2.2c-0.1,0-0.1-0.1-0.1-0.2c0-0.6,0-1.2,0-1.8C4.3,16.7,4.3,16.6,4.5,16.6z"/>
	<path class="st11" d="M10,7.6c-0.6,0-1.2,0-1.9,0c0-0.1,0.1-0.1,0.2-0.1c0.5,0,1,0,1.5,0C9.9,7.5,10,7.5,10,7.6z"/>
	<path class="st12" d="M17.6,7.6c0.1,0.2,0,0.5,0,0.7c0,0.4-0.1,0.9-0.1,1.3c0,0.2-0.1,0.3-0.3,0.3c-1.2,0-2.3,0-3.5,0
		c-0.2,0-0.3,0.1-0.3,0.3c0,1,0,1.9,0,2.9c0,0.2,0.1,0.3,0.3,0.2c1.1-0.1,2.2-0.3,3.3-0.4c0.2,0,0.2,0,0.2,0.2
		c-0.1,1.7-0.3,3.5-0.4,5.2c0,0.1,0,0.2,0,0.3c0,0.5,0,0.5-0.5,0.6c-1.5,0.4-2.9,0.8-4.4,1.2c-0.2,0.1-0.3,0-0.3-0.2
		c0-0.6,0-1.1,0-1.7c0-0.2,0.1-0.2,0.2-0.3c1.1-0.3,2.1-0.6,3.2-0.8c0.2-0.1,0.3-0.1,0.3-0.3c0-0.5,0-0.9,0.1-1.4
		c0-0.3-0.1-0.3-0.3-0.2c-1,0.2-1.9,0.3-2.9,0.5c-0.6,0.1-0.6,0.1-0.6-0.5c0-2.5,0-4.9,0-7.4c0-0.1,0-0.2,0-0.4c1.1,0,2.1,0,3.2,0
		C15.7,7.6,16.7,7.6,17.6,7.6z"/>
	<path class="st13" d="M17.6,7.6c-0.9,0-1.9,0-2.8,0c-1.1,0-2.1,0-3.2,0c0-0.1,0.2-0.1,0.2-0.1c1.8,0,3.7,0,5.5,0
		C17.4,7.5,17.5,7.4,17.6,7.6z"/>
	<g>
		<path d="M26.2,9.1H28v6.4c0,2.7-1.3,3.6-3.3,3.6c-0.5,0-1.1-0.1-1.5-0.2l0.2-1.4c0.3,0.1,0.7,0.2,1.1,0.2c1,0,1.7-0.5,1.7-2.2
			L26.2,9.1L26.2,9.1z"/>
		<path d="M33.8,19l-0.1-0.8h0c-0.4,0.6-1.2,1-2.1,1c-1.4,0-2.2-1-2.2-2.1c0-1.8,1.6-2.7,4.2-2.7v-0.1c0-0.5-0.2-1.2-1.4-1.2
			c-0.7,0-1.4,0.2-1.9,0.5l-0.4-1.2c0.5-0.3,1.4-0.6,2.6-0.6c2.3,0,2.9,1.4,2.9,3v2.6c0,0.6,0,1.3,0.1,1.7H33.8z M33.6,15.5
			c-1.3,0-2.5,0.2-2.5,1.3c0,0.7,0.5,1,1,1c0.7,0,1.2-0.5,1.4-1c0-0.1,0.1-0.3,0.1-0.4L33.6,15.5L33.6,15.5z"/>
		<path d="M38.3,11.9l1.2,3.6c0.2,0.6,0.4,1.2,0.5,1.8h0c0.1-0.6,0.3-1.1,0.5-1.8l1.1-3.6h1.9L40.7,19H39l-2.6-7.1H38.3L38.3,11.9z"
			/>
		<path d="M48.5,19l-0.1-0.8h0c-0.4,0.6-1.2,1-2.1,1c-1.4,0-2.2-1-2.2-2.1c0-1.8,1.6-2.7,4.2-2.7v-0.1c0-0.5-0.2-1.2-1.4-1.2
			c-0.7,0-1.4,0.2-1.9,0.5l-0.4-1.2c0.5-0.3,1.4-0.6,2.6-0.6c2.3,0,2.9,1.4,2.9,3v2.6c0,0.6,0,1.3,0.1,1.7H48.5z M48.3,15.5
			c-1.3,0-2.5,0.2-2.5,1.3c0,0.7,0.5,1,1,1c0.7,0,1.2-0.5,1.4-1c0-0.1,0.1-0.3,0.1-0.4L48.3,15.5L48.3,15.5z"/>
		<path d="M51.9,17c0.6,0.3,1.5,0.6,2.4,0.6c1.2,0,1.8-0.5,1.8-1.3c0-0.7-0.5-1.2-1.8-1.6c-1.6-0.6-2.7-1.4-2.7-2.9
			c0-1.6,1.3-2.8,3.5-2.8c1.1,0,1.9,0.2,2.4,0.5l-0.4,1.4c-0.4-0.2-1-0.5-2-0.5c-1.1,0-1.6,0.6-1.6,1.2c0,0.8,0.6,1.1,1.9,1.6
			c1.7,0.6,2.5,1.5,2.5,2.9c0,1.6-1.2,3-3.8,3c-1,0-2.1-0.3-2.7-0.6L51.9,17z"/>
		<path d="M64.9,18.8c-0.4,0.2-1.1,0.4-2,0.4c-2.2,0-3.7-1.4-3.7-3.6c0-2.1,1.5-3.8,4-3.8c0.7,0,1.3,0.1,1.7,0.3l-0.3,1.3
			c-0.3-0.1-0.7-0.3-1.4-0.3c-1.4,0-2.2,1-2.2,2.3c0,1.5,1,2.3,2.2,2.3c0.6,0,1.1-0.1,1.4-0.3L64.9,18.8z"/>
		<path d="M66.2,14.2c0-1,0-1.7-0.1-2.3h1.6l0.1,1.4h0.1c0.4-1,1.2-1.5,1.9-1.5c0.2,0,0.3,0,0.4,0v1.7c-0.1,0-0.3-0.1-0.5-0.1
			c-0.9,0-1.4,0.6-1.6,1.4c0,0.2-0.1,0.4-0.1,0.6V19h-1.8V14.2z"/>
		<path d="M73.3,9.9c0,0.5-0.4,1-1,1c-0.6,0-1-0.4-1-1c0-0.6,0.4-1,1-1C72.9,8.9,73.3,9.3,73.3,9.9z M71.4,19v-7.1h1.8V19H71.4z"/>
		<path d="M75.2,14.2c0-0.9,0-1.7-0.1-2.4h1.6l0.1,1.1h0c0.5-0.8,1.4-1.3,2.4-1.3c1.6,0,3,1.4,3,3.6c0,2.6-1.6,3.8-3.3,3.8
			c-0.9,0-1.6-0.4-2-1h0v3.7h-1.8L75.2,14.2L75.2,14.2z M77,16c0,0.2,0,0.3,0.1,0.5c0.2,0.7,0.8,1.3,1.6,1.3c1.1,0,1.8-1,1.8-2.4
			c0-1.3-0.6-2.3-1.8-2.3c-0.7,0-1.4,0.5-1.6,1.3c0,0.1-0.1,0.3-0.1,0.5V16z"/>
		<path d="M85.8,9.8v2h1.7v1.3h-1.7v3.1c0,0.9,0.2,1.3,0.9,1.3c0.3,0,0.5,0,0.7-0.1l0,1.4c-0.3,0.1-0.7,0.2-1.3,0.2
			c-0.7,0-1.2-0.2-1.6-0.6c-0.4-0.4-0.6-1.1-0.6-2v-3.4h-1v-1.3h1v-1.6L85.8,9.8z"/>
	</g>
</g>
</svg>
