<?xml version="1.0" encoding="utf-8"?>
<!-- Generator: Adobe Illustrator 26.0.2, SVG Export Plug-In . SVG Version: 6.00 Build 0)  -->
<svg version="1.1" id="Layer_1" xmlns="http://www.w3.org/2000/svg" xmlns:xlink="http://www.w3.org/1999/xlink" x="0px" y="0px"
	 viewBox="0 0 90 30" style="enable-background:new 0 0 90 30;" xml:space="preserve">
<style type="text/css">
	.st0{fill:#D63A2E;}
	.st1{fill:#F34336;}
	.st2{fill:#D73A2E;}
	.st3{fill:#F3584D;}
</style>
<path class="st0" d="M0.4,9.7C0.7,9.4,1,9,1.3,8.7c1.6-1.6,3.1-3.2,4.8-4.8c0.2-0.2,0.2-0.2,0.5-0.2c2,0,4,0,5.9,0
	c-0.1,0.1-0.2,0.2-0.2,0.3c-1.9,1.8-3.7,3.6-5.5,5.5C6.6,9.5,6.5,9.6,6.5,9.7L6.4,9.8l0,0C4.3,9.8,2.4,9.8,0.4,9.7L0.4,9.7L0.4,9.7
	L0.4,9.7z"/>
<path class="st0" d="M12.5,23.9c-0.2,0.2-0.2,0.1-0.2,0c0-0.1-0.1-0.1-0.1-0.2l0,0c0-0.2-0.1-0.4-0.2-0.6c-0.7-1.6-1.5-3.4-2.2-5.1
	c-0.8-1.9-1.6-3.8-2.4-5.6c-0.3-0.9-0.8-1.7-1.1-2.7l0,0h0.1c4.1,0,8.1,0,12.1,0h0.1c0,0.2,0,0.2-0.1,0.3c-0.8,1.9-1.6,3.7-2.4,5.5
	C15.1,18,14,20.5,13,22.9c-0.2,0.2-0.3,0.5-0.2,0.9l0,0C12.6,23.9,12.5,23.9,12.5,23.9z"/>
<path class="st1" d="M12.7,23.9c-0.1-0.3,0.2-0.5,0.2-0.9c1-2.5,2.1-4.9,3.1-7.3c0.8-1.9,1.6-3.7,2.4-5.5c0.1-0.1,0.1-0.2,0.1-0.3
	c2,0,4.1,0,6.2,0c-0.8,0.9-1.6,1.9-2.4,2.8c-3.2,3.7-6.3,7.3-9.5,11.1C12.8,23.7,12.8,23.8,12.7,23.9z"/>
<path class="st1" d="M6.3,9.8c0.3,0.9,0.8,1.8,1.2,2.7c0.8,1.9,1.6,3.8,2.4,5.6c0.7,1.6,1.4,3.4,2.2,5.1c0.1,0.2,0.2,0.4,0.2,0.6
	c-0.9-1.1-1.8-2.1-2.7-3.2c-3-3.5-5.9-7-9-10.6c0-0.1-0.1-0.2-0.2-0.2C2.4,9.8,4.3,9.8,6.3,9.8z"/>
<path class="st2" d="M24.8,9.8c-2,0-4.1,0-6.2,0h-0.1c0-0.2-0.2-0.2-0.2-0.4c-1.7-1.6-3.3-3.2-4.9-4.8c-0.3-0.3-0.6-0.6-0.9-0.9
	c2,0,4,0,5.9,0c0.2,0,0.2,0,0.3,0.2c2,2,3.9,3.9,5.9,5.9C24.7,9.6,24.8,9.7,24.8,9.8z"/>
<path class="st3" d="M12.5,3.6c0.3,0.3,0.6,0.6,0.9,0.9c1.6,1.6,3.1,3.2,4.8,4.8c0.2,0.2,0.2,0.2,0.2,0.4c-4.1,0-8.1,0-12.1,0V9.7
	c0.1-0.1,0.2-0.2,0.2-0.3c1.8-1.8,3.7-3.7,5.5-5.5c0.1-0.1,0.2-0.2,0.2-0.3C12.5,3.6,12.5,3.6,12.5,3.6z"/>
<path class="st1" d="M6.5,9.7L6.5,9.7C6.5,9.8,6.4,9.8,6.5,9.7C6.4,9.7,6.4,9.7,6.5,9.7z"/>
<g>
	<path class="st0" d="M39.3,18.7c-0.3,0-0.5,0-0.8,0c-1.6-0.1-2.6-0.6-3.6-1.9c-0.8-1.1-1.5-2.4-2.2-3.5c-0.4-0.6-0.8-0.8-1.9-0.8
		h-0.7v3.5c0,1.9,0.2,1.9,2,2.1v0.6h-5.8v-0.7c1.8-0.2,2-0.3,2-2.1V7.1c0-1.9-0.2-1.9-1.9-2V4.4h5.5c1.6,0,2.7,0.2,3.5,0.8
		c0.9,0.6,1.5,1.5,1.5,2.9c0,1.9-1.2,3-2.8,3.7c0.4,0.8,1.3,2.2,2,3.1c0.8,1.2,1.3,1.7,1.8,2.3c0.6,0.7,1.1,0.9,1.5,1V18.7z
		 M31.2,11.6c1.1,0,1.9-0.2,2.4-0.6c0.9-0.7,1.2-1.5,1.2-2.7c0-2.4-1.5-3.2-3.3-3.2c-0.7,0-1,0.1-1.2,0.3c-0.2,0.1-0.3,0.4-0.3,0.9
		v5.4L31.2,11.6L31.2,11.6z"/>
	<path class="st0" d="M50.2,18c-1,0.2-2.1,0.4-3.3,0.8l-0.2-0.2v-1.5c-0.5,0.4-1,0.8-1.6,1.2c-0.7,0.4-1.1,0.5-1.7,0.5
		c-1.5,0-2.7-0.9-2.7-3.2v-4.3c0-1.2-0.1-1.3-1.4-1.5V9.2c1-0.1,2.1-0.2,3.2-0.4c-0.1,0.7-0.1,1.7-0.1,3.2V15c0,1.9,0.9,2.4,2,2.4
		c0.8,0,1.6-0.3,2.4-1v-5.1c0-1.3-0.2-1.3-1.7-1.5V9.2c1.2-0.1,2.3-0.2,3.5-0.4v7.2c0,1.1,0.2,1.3,1,1.3h0.6V18L50.2,18z"/>
	<path class="st0" d="M55.5,9c0.3-0.2,0.7-0.3,0.9-0.3c2.3,0,4.4,2,4.4,4.6c0,3.2-2.6,5.5-5.6,5.5c-0.9,0-2.1-0.3-3.3-0.8V5.9
		c0-1.3,0-1.5-1.5-1.6V3.8c1-0.2,2.4-0.5,3.2-0.8v6.7L55.5,9z M53.8,16c0,0.3,0,0.5,0.2,0.8c0.2,0.4,0.8,1.2,2,1.2c1.8,0,3-1.5,3-4
		c0-2.4-1.5-4-3.4-4c-0.6,0-1.3,0.2-1.7,0.4V16L53.8,16z"/>
	<path class="st0" d="M71.8,9.5c-1.2,0.2-1.4,0.3-2,1.6c-0.5,1.2-1.2,2.9-2.7,6.6c-1.5,3.5-2,4.7-2.3,5.9c-0.1,0.4-0.4,0.5-0.7,0.5
		c-0.6,0-1.3-0.5-1.3-1c0-0.3,0.2-0.5,0.6-0.8c0.7-0.4,1.1-1,1.6-1.9c0.4-0.8,0.6-1.2,0.7-1.5c0.1-0.3,0.1-0.6,0-1
		c-0.9-2.4-1.9-5.1-2.6-6.7c-0.4-1.2-0.7-1.5-1.9-1.7V9h4.5v0.5c-1,0.2-1.1,0.4-0.9,1.2l2,5.5c0.6-1.5,1.5-4,2.1-5.4
		c0.3-0.8,0.1-1.1-1.2-1.3V9h4L71.8,9.5L71.8,9.5z"/>
</g>
</svg>
