<?xml version="1.0" encoding="utf-8"?>
<!-- Generator: Adobe Illustrator 26.0.2, SVG Export Plug-In . SVG Version: 6.00 Build 0)  -->
<svg version="1.1"
	 id="svg2" xmlns:cc="http://web.resource.org/cc/" xmlns:dc="http://purl.org/dc/elements/1.1/" xmlns:inkscape="http://www.inkscape.org/namespaces/inkscape" xmlns:rdf="http://www.w3.org/1999/02/22-rdf-syntax-ns#" xmlns:sodipodi="http://inkscape.sourceforge.net/DTD/sodipodi-0.dtd" xmlns:svg="http://www.w3.org/2000/svg"
	 xmlns="http://www.w3.org/2000/svg" xmlns:xlink="http://www.w3.org/1999/xlink" x="0px" y="0px" viewBox="0 0 90 30"
	 style="enable-background:new 0 0 90 30;" xml:space="preserve" preserveAspectRatio="xMidYMid meet">
<style type="text/css">
	.st0{fill:#646464;}
	.st1{fill:url(#path1948_00000090294757161950487060000000775323629669306787_);}
	.st2{fill:url(#path1950_00000118389263567023520230000003195781295893756324_);}
	.st3{opacity:0.4438;fill:url(#path1894_00000027599403471382115410000006459589795707730319_);enable-background:new    ;}
</style>
<sodipodi:namedview  bordercolor="#666666" borderopacity="1.0" gridtolerance="10.0" guidetolerance="10.0" height="40mm" id="base" inkscape:current-layer="svg2" inkscape:cx="250.73166" inkscape:cy="67.50975" inkscape:pageopacity="0.0" inkscape:pageshadow="2" inkscape:window-height="882" inkscape:window-width="1233" inkscape:window-x="0" inkscape:window-y="6" inkscape:zoom="2.1461642" objecttolerance="10.0" pagecolor="#ffffff" units="mm" width="210mm">
	</sodipodi:namedview>
<path id="path46" class="st0" d="M34.2,14.4c0-2.7-0.8-4.1-2.3-4.1c-0.6,0-1.2,0.1-1.8,0.3c-0.5,0.2-0.8,0.3-0.9,0.5v6.4
	c1,0.6,1.8,0.9,2.6,0.8C33.4,18.2,34.2,16.9,34.2,14.4z M36.1,14.5c0,1.4-0.3,2.5-1,3.4c-0.7,1-1.7,1.6-3,1.6c-1,0-1.9-0.3-3-0.9
	v5.8l-1.6-0.6V10.9c0.3-0.3,0.6-0.6,1-0.8c1-0.6,2.2-0.9,3.6-0.9l0,0c1.3,0,2.3,0.5,3,1.6C35.8,11.7,36.1,12.9,36.1,14.5z"/>
<path id="path48" class="st0" d="M46.2,18.3c0,1.8-0.2,3.1-0.6,3.8c-0.4,0.7-1.1,1.3-2.1,1.7c-0.8,0.3-1.8,0.5-2.7,0.5l-0.3-1
	c1-0.1,1.7-0.3,2.1-0.4c0.8-0.3,1.3-0.7,1.6-1.2c0.2-0.4,0.4-1.3,0.4-2.6v-0.4c-1.1,0.5-2.3,0.8-3.5,0.8c-0.8,0-1.5-0.3-2.1-0.8
	c-0.7-0.6-1-1.3-1-2.1V9.7l1.6-0.6V16c0,0.7,0.2,1.3,0.7,1.7c0.5,0.4,1.1,0.6,1.8,0.6c0.8,0,1.6-0.3,2.4-0.9v-8h1.6L46.2,18.3
	L46.2,18.3z"/>
<path id="path50" class="st0" d="M52.6,19.4c-0.2,0-0.4,0-0.5,0c-0.9,0-1.7-0.2-2.2-0.7c-0.5-0.4-0.8-1.1-0.8-1.8v-6.5H48v-1h1.1
	V6.6L50.8,6v3.3h1.8v1h-1.8v6.4c0,0.6,0.2,1.1,0.5,1.3c0.3,0.2,0.7,0.3,1.3,0.4V19.4z"/>
<path id="path52" class="st0" d="M62.6,19.2h-1.6v-6.4c0-0.6-0.1-1.2-0.4-1.7c-0.4-0.5-0.8-0.8-1.4-0.8c-0.8,0-1.7,0.4-2.8,1.2v7.6
	h-1.6V4.1l1.6-0.5v6.9c1.1-0.8,2.2-1.1,3.5-1.1c0.9,0,1.6,0.3,2.1,0.9c0.5,0.6,0.8,1.3,0.8,2.2L62.6,19.2L62.6,19.2z"/>
<path id="path54" class="st0" d="M71.3,14.1c0-1-0.2-1.9-0.6-2.6c-0.5-0.8-1.2-1.3-2.2-1.3c-1.8,0.1-2.7,1.4-2.7,3.9
	c0,1.1,0.2,2.1,0.6,2.8c0.5,1,1.2,1.4,2.2,1.4C70.4,18.4,71.3,16.9,71.3,14.1z M73.1,14.1c0,1.5-0.4,2.7-1.1,3.7
	c-0.8,1.1-2,1.6-3.4,1.6s-2.6-0.6-3.4-1.6c-0.7-1-1.1-2.2-1.1-3.7c0-1.4,0.4-2.5,1.2-3.5c0.8-1,1.9-1.5,3.3-1.5
	c1.4,0,2.5,0.5,3.3,1.5C72.7,11.6,73.1,12.7,73.1,14.1z"/>
<path id="path56" class="st0" d="M82.6,19.2h-1.6v-6.7c0-0.7-0.2-1.3-0.7-1.7c-0.4-0.4-1-0.6-1.8-0.6c-0.8,0-1.5,0.3-2.2,0.8v8.3
	h-1.6v-8.5c0.9-0.7,1.8-1.1,2.6-1.3c0.8-0.2,1.4-0.3,2-0.3c0.4,0,0.8,0,1.1,0.1c0.6,0.1,1.2,0.4,1.6,0.8c0.4,0.4,0.7,1,0.7,1.6
	L82.6,19.2L82.6,19.2z"/>
<linearGradient id="path1948_00000115515695473584305860000017987111382941836677_" gradientUnits="userSpaceOnUse" x1="679.4064" y1="1362.6488" x2="699.5452" y2="1379.9755" gradientTransform="matrix(0.5625 0 0 0.568 -381.4962 -769.2919)">
	<stop  offset="0" style="stop-color:#5A9FD4"/>
	<stop  offset="1" style="stop-color:#306998"/>
</linearGradient>
<path id="path1948" style="fill:url(#path1948_00000115515695473584305860000017987111382941836677_);" d="M11.3,4.1
	c-0.8,0-1.7,0.1-2.4,0.2C6.9,4.7,6.5,5.5,6.5,6.9v1.9h5v0.6h-5H4.6c-1.4,0-2.7,0.9-3.1,2.5c-0.4,1.9-0.5,3.1,0,5
	c0.4,1.5,1.2,2.5,2.6,2.5h1.7v-2.3c0-1.6,1.4-3.1,3.1-3.1h5c1.4,0,2.5-1.1,2.5-2.5V6.9c0-1.3-1.1-2.3-2.5-2.6
	C13,4.2,12.2,4.1,11.3,4.1z M8.6,5.6c0.5,0,0.9,0.4,0.9,0.9S9.1,7.5,8.6,7.5c-0.5,0-0.9-0.4-0.9-0.9S8.1,5.6,8.6,5.6z"/>
<linearGradient id="path1950_00000060738161218404831950000014354221678315543971_" gradientUnits="userSpaceOnUse" x1="707.3247" y1="1390.4702" x2="700.1331" y2="1380.2955" gradientTransform="matrix(0.5625 0 0 0.568 -381.4962 -769.2919)">
	<stop  offset="0" style="stop-color:#FFD43B"/>
	<stop  offset="1" style="stop-color:#FFE873"/>
</linearGradient>
<path id="path1950" style="fill:url(#path1950_00000060738161218404831950000014354221678315543971_);" d="M17,9.4v2.2
	c0,1.7-1.4,3.1-3.1,3.1H8.9c-1.3,0-2.5,1.2-2.5,2.5V22c0,1.3,1.2,2.1,2.5,2.5c1.6,0.5,3.1,0.5,5,0c1.3-0.4,2.5-1.1,2.5-2.5v-1.9h-5
	v-0.6h5h2.5c1.4,0,2-1,2.5-2.5c0.5-1.6,0.5-3,0-5c-0.4-1.4-1-2.5-2.5-2.5H17z M14.2,21.3c0.5,0,0.9,0.4,0.9,0.9
	c0,0.5-0.4,0.9-0.9,0.9c-0.5,0-0.9-0.4-0.9-0.9C13.3,21.8,13.7,21.3,14.2,21.3z"/>
<path id="text3004" sodipodi:nodetypes="ccccccccccccccccccccccc" class="st0" d="M85.8,7.9h0.3V6.1h0.7V5.9h-1.7v0.2h0.7L85.8,7.9
	 M87,7.9h0.2V6.3l0.5,1.6h0.3l0.6-1.6v1.6h0.3v-2h-0.4l-0.6,1.7l-0.5-1.7H87V7.9"/>
<radialGradient id="path1894_00000096752282346537470520000009580271906853042101_" cx="-2433.8076" cy="1354.3352" r="5.362" gradientTransform="matrix(1.749057e-08 -0.2399 1.0547 3.791546e-07 -1416.9385 -556.173)" gradientUnits="userSpaceOnUse">
	<stop  offset="0" style="stop-color:#B8B8B8;stop-opacity:0.498"/>
	<stop  offset="1" style="stop-color:#7F7F7F;stop-opacity:0"/>
</radialGradient>
<path id="path1894" sodipodi:cx="61.518883" sodipodi:cy="132.28575" sodipodi:rx="48.948284" sodipodi:ry="8.6066771" sodipodi:type="arc" style="opacity:0.4438;fill:url(#path1894_00000096752282346537470520000009580271906853042101_);enable-background:new    ;" d="
	M18.1,27.7c0,0.7-3,1.3-6.6,1.3s-6.6-0.6-6.6-1.3c0-0.7,3-1.3,6.6-1.3S18.1,27,18.1,27.7z"/>
</svg>
