<svg xmlns="http://www.w3.org/2000/svg" viewBox="0 0 90 30"><defs><style>.a{fill:#fefefe;}.a,.b,.c{fill-rule:evenodd;}.b{fill:#3e474a;}.c{fill:#47b353;}</style></defs><path class="a" d="M20.67,8.56,12.9,4a2.92,2.92,0,0,0-3,0L2.14,8.56A3.12,3.12,0,0,0,.65,11.23v9.22a3.11,3.11,0,0,0,1.49,2.67l7.77,4.61a2.93,2.93,0,0,0,3,0l7.77-4.61a3.1,3.1,0,0,0,1.5-2.67V11.23A3.11,3.11,0,0,0,20.67,8.56Z"/><path class="b" d="M10.18,27.26,2.42,22.65a2.57,2.57,0,0,1-1.24-2.2V11.23A2.57,2.57,0,0,1,2.41,9l7.77-4.61a2.42,2.42,0,0,1,1.23-.34,2.39,2.39,0,0,1,1.22.34L20.4,9a2.52,2.52,0,0,1,1.19,1.77c-.26-.55-.84-.7-1.51-.3l-7.35,4.54a2.52,2.52,0,0,0-1.59,2.24v9.05c0,.66.26,1.09.67,1.21a1.81,1.81,0,0,1-.4,0,2.41,2.41,0,0,1-1.23-.33M20.67,8.56,12.9,4a2.87,2.87,0,0,0-3,0L2.14,8.56A3.11,3.11,0,0,0,.65,11.23v9.22a3.11,3.11,0,0,0,1.49,2.67l7.77,4.61a2.93,2.93,0,0,0,3,0l7.77-4.61a3.1,3.1,0,0,0,1.5-2.67V11.23a3.1,3.1,0,0,0-1.5-2.67"/><path class="c" d="M18.63,21.34,16.7,22.5c-.05,0-.09.06-.09.12v.51c0,.06,0,.09.09.06l2-1.2a.14.14,0,0,0,.06-.14V21.4c0-.06,0-.09-.1-.06"/><path class="a" d="M14.52,17.08c.06,0,.11,0,.11.09v.67a1.24,1.24,0,0,1,.74-.09s.07.08,0,.16l-.15.59a.27.27,0,0,1-.06.12l0,0h-.06a1,1,0,0,0-.72.11.91.91,0,0,0-.53.8c0,.3.16.39.7.4.72,0,1,.33,1,1.05A2.6,2.6,0,0,1,14.66,23v.66a.27.27,0,0,1-.11.21l-.4.22c-.06,0-.11,0-.11-.09v-.65a1.25,1.25,0,0,1-.89.09.12.12,0,0,1,0-.15l.14-.6a.21.21,0,0,1,.07-.12l0,0a.08.08,0,0,1,.07,0,1.17,1.17,0,0,0,1.43-1c0-.33-.19-.47-.63-.48s-1.09-.11-1.1-.94A2.41,2.41,0,0,1,14,18.2v-.67a.23.23,0,0,1,.12-.2Z"/><path class="b" d="M27.36,16.53h1.71a2.42,2.42,0,0,1,.68.12,1.58,1.58,0,0,1,.51.28,1.27,1.27,0,0,1,.33.43,1.5,1.5,0,0,1,.11.6,1.24,1.24,0,0,1-.13.58,1.19,1.19,0,0,1-.35.42,1.7,1.7,0,0,1-.55.29,2,2,0,0,1-.65.11H27.36ZM30.3,14a1.24,1.24,0,0,1-.34.38,1.79,1.79,0,0,1-.52.25,2.59,2.59,0,0,1-.62.1H27.36V12.32h1.42a3,3,0,0,1,.67.09,1.43,1.43,0,0,1,.52.22,1,1,0,0,1,.33.35,1.06,1.06,0,0,1,.13.53.89.89,0,0,1-.13.5Zm1.91,2.19a2.84,2.84,0,0,0-.69-.6l-.1-.06A2.67,2.67,0,0,0,32,15a2.34,2.34,0,0,0,.57-1.52,2.79,2.79,0,0,0-.33-1.38,2.85,2.85,0,0,0-.89-.94,3.83,3.83,0,0,0-1.22-.53,5.65,5.65,0,0,0-1.37-.17h-3.1a.38.38,0,0,0-.4.37v9.94a.38.38,0,0,0,.4.37H29A4.83,4.83,0,0,0,30.4,21a4.16,4.16,0,0,0,1.23-.61,3.16,3.16,0,0,0,.87-1,2.92,2.92,0,0,0,.33-1.4,2.75,2.75,0,0,0-.17-1,2.57,2.57,0,0,0-.45-.79Z"/><path class="b" d="M38.58,16.76H36.86l.87-2.66Zm.09-6a.4.4,0,0,0-.38-.26H37.18a.4.4,0,0,0-.38.26l-3.37,9.93a.35.35,0,0,0,.06.34.37.37,0,0,0,.31.15h1.33a.39.39,0,0,0,.38-.26l.75-2.31h2.91l.74,2.31a.38.38,0,0,0,.38.26h1.32a.37.37,0,0,0,.31-.15A.34.34,0,0,0,42,20.7Z"/><path class="b" d="M50,16.58a3.26,3.26,0,0,0-.62-.61,5.09,5.09,0,0,0-.74-.46,5.87,5.87,0,0,0-.81-.36Q47.4,15,47,14.88l-.73-.24a3.6,3.6,0,0,1-.66-.3,1.48,1.48,0,0,1-.45-.41.76.76,0,0,1-.16-.51,1.08,1.08,0,0,1,.12-.52,1.16,1.16,0,0,1,.35-.38,1.67,1.67,0,0,1,.52-.25,2.22,2.22,0,0,1,1.33,0,1.5,1.5,0,0,1,.52.31,1.6,1.6,0,0,1,.36.49,2.7,2.7,0,0,1,.19.68.38.38,0,0,0,.39.32h1.36A.39.39,0,0,0,50.4,14a.32.32,0,0,0,.11-.27,2.92,2.92,0,0,0-.35-1.39,3.23,3.23,0,0,0-.88-1.06A4,4,0,0,0,48,10.6a4.58,4.58,0,0,0-2.79,0,3.89,3.89,0,0,0-1.21.59,3.1,3.1,0,0,0-.88,1,2.62,2.62,0,0,0-.35,1.33,2.44,2.44,0,0,0,.35,1.31,3.34,3.34,0,0,0,.87.93,5.07,5.07,0,0,0,1.12.63,9.58,9.58,0,0,0,1.16.42l.78.26a3,3,0,0,1,.68.32,1.64,1.64,0,0,1,.45.42,1,1,0,0,1,.15.57.92.92,0,0,1-.13.51,1.22,1.22,0,0,1-.37.38,1.76,1.76,0,0,1-.54.23,2.83,2.83,0,0,1-1.45,0,1.71,1.71,0,0,1-.6-.31,1.66,1.66,0,0,1-.42-.49,2.06,2.06,0,0,1-.22-.7.39.39,0,0,0-.39-.32H42.89a.41.41,0,0,0-.28.11.39.39,0,0,0-.11.27,3,3,0,0,0,.4,1.44,3.6,3.6,0,0,0,1,1.06,4.52,4.52,0,0,0,1.32.65,5.15,5.15,0,0,0,2.84,0,4.34,4.34,0,0,0,1.24-.55,3.21,3.21,0,0,0,.92-.95,2.53,2.53,0,0,0,.36-1.36,2.79,2.79,0,0,0-.15-.93,2.92,2.92,0,0,0-.43-.77"/><path class="b" d="M58.67,10.5H57.41a.38.38,0,0,0-.39.37v3.9h-3.5v-3.9a.37.37,0,0,0-.39-.37H51.88a.37.37,0,0,0-.39.37v9.94a.37.37,0,0,0,.39.37h1.25a.37.37,0,0,0,.39-.37V16.59H57v4.22a.38.38,0,0,0,.39.37h1.26a.37.37,0,0,0,.39-.37V10.87a.37.37,0,0,0-.39-.37"/></svg>