<?xml version="1.0" encoding="utf-8"?>
<!-- Generator: Adobe Illustrator 26.0.2, SVG Export Plug-In . SVG Version: 6.00 Build 0)  -->
<svg version="1.1" xmlns="http://www.w3.org/2000/svg" xmlns:xlink="http://www.w3.org/1999/xlink" x="0px" y="0px"
	 viewBox="0 0 90 30" style="enable-background:new 0 0 90 30;" xml:space="preserve">
<style type="text/css">
	.st0{fill:#F68F25;}
	.st1{opacity:0.43;fill:#FFFFFF;enable-background:new    ;}
	.st2{opacity:0.41;fill:#FFFFFF;enable-background:new    ;}
</style>
<g id="Paths">
	<g>
	</g>
	<path class="st0" d="M12.9,5.8C12.9,5.8,12.9,5.8,12.9,5.8c-1-0.3-2-0.5-3.1-0.5c-5.1,0-9.3,4.2-9.3,9.3c0,4.2,2.7,7.7,6.5,8.8
		c0,0,0,0,0,0c0.9,0.3,1.8,0.4,2.8,0.4c5.1,0,9.3-4.2,9.3-9.3C19.1,10.6,16.5,7.1,12.9,5.8z M9.7,19.7c-2.8,0-5.2-2.3-5.2-5.2
		s2.3-5.2,5.2-5.2s5.2,2.3,5.2,5.2S12.6,19.7,9.7,19.7z"/>
	<path class="st1" d="M14.4,6.7c0,0-1.9-1-4.4-1S6,6.5,4.6,7.5S0.8,11.4,1,14.8s1.3,4.8,1.3,4.8s-1.5-1.3-1.6-5.1s2.4-6.1,3-6.7
		s2.5-2.3,5.7-2.4C12.7,5.3,14.4,6.7,14.4,6.7z"/>
	<path class="st2" d="M14.1,11.5c0.4,0.6,0.7,1.2,0.8,1.9c0.1,0.6,0.1,1.2,0,1.8c-0.1,0.5-0.2,1-0.5,1.4c-0.2,0.4-0.4,0.9-0.7,1.2
		c-0.4,0.4-0.8,0.8-1.3,1.1c-0.5,0.3-0.7,0.4-1.2,0.6c-0.6,0.2-1.3,0.3-1.9,0.2c-0.8-0.1-1.6-0.4-2.3-0.8c0.5,0.4,1.1,0.7,1.7,0.8
		c1.1,0.3,2.3,0.1,3.4-0.3c1.1-0.5,1.7-1.1,2.4-2.1c0.7-1.1,0.9-2.4,0.7-3.6c-0.1-0.6-0.3-1.2-0.6-1.7
		C14.4,11.8,14.3,11.6,14.1,11.5z"/>
	<circle class="st0" cx="19.6" cy="5.3" r="2.4"/>
	<path class="st1" d="M20.7,3.3c0,0-0.5-0.2-1.1-0.2c-0.6,0-0.9,0.2-1.3,0.5s-1,0.9-0.9,1.8c0.1,0.9,0.3,1.2,0.3,1.2
		s-0.4-0.3-0.4-1.3c0-1,0.6-1.5,0.8-1.7S18.7,3,19.5,3C20.3,3,20.7,3.3,20.7,3.3z"/>
	<g>
		<path class="st0" d="M29.1,8.3h1.2l1.4,3.7L33,8.3h1.2l-2.1,5.1h-1L29.1,8.3z"/>
		<path class="st0" d="M35.4,6.7h3c0.8,0,1.5,0.2,1.9,0.7c0.4,0.4,0.6,0.9,0.6,1.4v0c0,1.1-0.7,1.8-1.6,2l1.8,2.5h-1.4L38,11h-1.5
			v2.3h-1.2L35.4,6.7L35.4,6.7z M38.3,10c0.8,0,1.4-0.4,1.4-1.1v0c0-0.7-0.5-1.1-1.4-1.1h-1.7V10C36.5,10,38.3,10,38.3,10z"/>
		<path class="st0" d="M41.8,10.9L41.8,10.9c0-1.5,1-2.7,2.5-2.7c1.6,0,2.4,1.3,2.4,2.7c0,0.1,0,0.2,0,0.3h-3.7
			c0.1,0.8,0.7,1.3,1.5,1.3c0.6,0,1-0.2,1.4-0.6l0.7,0.6c-0.5,0.6-1.1,0.9-2.1,0.9C42.9,13.5,41.8,12.4,41.8,10.9z M45.5,10.5
			c-0.1-0.7-0.5-1.3-1.3-1.3c-0.7,0-1.2,0.5-1.3,1.3H45.5z"/>
		<path class="st0" d="M47.5,11.9L47.5,11.9c0-1.1,0.9-1.6,2.1-1.6c0.6,0,1,0.1,1.4,0.2v-0.1c0-0.7-0.4-1.1-1.3-1.1
			c-0.6,0-1,0.1-1.4,0.3l-0.3-0.9c0.6-0.2,1.1-0.4,1.9-0.4c0.8,0,1.3,0.2,1.7,0.6c0.4,0.4,0.5,0.9,0.5,1.6v3h-1.1v-0.6
			c-0.3,0.4-0.9,0.7-1.6,0.7C48.3,13.5,47.5,12.9,47.5,11.9z M51,11.6v-0.3c-0.3-0.1-0.7-0.2-1.1-0.2c-0.7,0-1.2,0.3-1.2,0.8v0
			c0,0.5,0.4,0.8,1,0.8C50.4,12.6,51,12.2,51,11.6z"/>
		<path class="st0" d="M53.5,6.4h1.2v7h-1.2V6.4z"/>
		<path class="st0" d="M56.2,6.5h1.2v1.1h-1.2V6.5z M56.2,8.3h1.2v5.1h-1.2V8.3z"/>
		<path class="st0" d="M58.7,12.6l2.9-3.3h-2.8V8.3h4.3v0.8l-2.9,3.3h2.9v0.9h-4.4V12.6z"/>
		<path class="st0" d="M63.9,10.9L63.9,10.9c0-1.5,1-2.7,2.5-2.7c1.6,0,2.4,1.3,2.4,2.7c0,0.1,0,0.2,0,0.3H65
			c0.1,0.8,0.7,1.3,1.5,1.3c0.6,0,1-0.2,1.4-0.6l0.7,0.6c-0.5,0.6-1.1,0.9-2.1,0.9C65,13.5,63.9,12.4,63.9,10.9z M67.6,10.5
			c-0.1-0.7-0.5-1.3-1.3-1.3c-0.7,0-1.2,0.5-1.3,1.3H67.6z"/>
		<path class="st0" d="M29.4,20.4L29.4,20.4c0-1.9,1.5-3.5,3.5-3.5c2.1,0,3.5,1.6,3.5,3.4v0c0,1.9-1.5,3.5-3.5,3.5
			C30.8,23.8,29.4,22.3,29.4,20.4z M35.1,20.4L35.1,20.4c0-1.3-0.9-2.4-2.3-2.4c-1.3,0-2.3,1.1-2.3,2.4v0c0,1.3,0.9,2.4,2.3,2.4
			C34.2,22.7,35.1,21.7,35.1,20.4z"/>
		<path class="st0" d="M37.7,18.7h1.2v1.1c0.3-0.8,0.9-1.3,1.8-1.2v1.2h-0.1c-1,0-1.7,0.7-1.7,2v1.9h-1.2L37.7,18.7L37.7,18.7z"/>
		<path class="st0" d="M41.2,21.2L41.2,21.2c0-1.5,1.1-2.7,2.6-2.7c0.9,0,1.5,0.4,2,0.9l-0.7,0.8c-0.4-0.4-0.7-0.6-1.3-0.6
			c-0.8,0-1.5,0.7-1.5,1.6v0c0,0.9,0.6,1.6,1.5,1.6c0.5,0,0.9-0.2,1.3-0.6l0.7,0.7c-0.5,0.6-1.1,0.9-2.1,0.9
			C42.3,23.8,41.2,22.7,41.2,21.2z"/>
		<path class="st0" d="M46.9,16.7h1.2v2.7c0.3-0.5,0.8-0.9,1.6-0.9c1.1,0,1.8,0.8,1.8,1.9v3.2h-1.2v-2.9c0-0.8-0.4-1.2-1.1-1.2
			c-0.7,0-1.1,0.5-1.1,1.3v2.9h-1.2V16.7z"/>
		<path class="st0" d="M52.6,21.2L52.6,21.2c0-1.5,1-2.7,2.5-2.7c1.6,0,2.4,1.3,2.4,2.7c0,0.1,0,0.2,0,0.3h-3.7
			c0.1,0.8,0.7,1.3,1.5,1.3c0.6,0,1-0.2,1.4-0.6l0.7,0.6c-0.5,0.6-1.1,0.9-2.1,0.9C53.7,23.8,52.6,22.8,52.6,21.2z M56.3,20.8
			c-0.1-0.7-0.5-1.3-1.3-1.3c-0.7,0-1.2,0.5-1.3,1.3H56.3z"/>
		<path class="st0" d="M58.2,23.1l0.5-0.8c0.6,0.4,1.1,0.6,1.7,0.6c0.5,0,0.8-0.2,0.8-0.5v0c0-0.4-0.5-0.5-1.1-0.7
			c-0.7-0.2-1.6-0.5-1.6-1.5v0c0-1,0.8-1.5,1.8-1.5c0.6,0,1.3,0.2,1.9,0.6L61.7,20c-0.5-0.3-1-0.5-1.4-0.5c-0.4,0-0.7,0.2-0.7,0.5v0
			c0,0.4,0.5,0.5,1.1,0.7c0.7,0.2,1.6,0.6,1.6,1.5v0c0,1.1-0.8,1.6-1.9,1.6C59.6,23.8,58.8,23.6,58.2,23.1z"/>
		<path class="st0" d="M63.6,22.3v-2.7h-0.6v-1h0.6v-1.4h1.2v1.4h1.4v1h-1.4v2.5c0,0.4,0.2,0.6,0.6,0.6c0.3,0,0.5-0.1,0.7-0.2v0.9
			c-0.3,0.2-0.6,0.3-1,0.3C64.2,23.8,63.6,23.4,63.6,22.3z"/>
		<path class="st0" d="M67.3,18.7h1.2v1.1c0.3-0.8,0.9-1.3,1.8-1.2v1.2h-0.1c-1,0-1.7,0.7-1.7,2v1.9h-1.2V18.7z"/>
		<path class="st0" d="M70.6,22.3L70.6,22.3c0-1.1,0.9-1.6,2.1-1.6c0.6,0,1,0.1,1.4,0.2v-0.1c0-0.7-0.4-1.1-1.3-1.1
			c-0.6,0-1,0.1-1.4,0.3L71.1,19c0.6-0.2,1.1-0.4,1.9-0.4c0.8,0,1.3,0.2,1.7,0.6c0.4,0.4,0.5,0.9,0.5,1.6v3h-1.1v-0.6
			c-0.3,0.4-0.9,0.7-1.6,0.7C71.5,23.8,70.6,23.3,70.6,22.3z M74.1,21.9v-0.3c-0.3-0.1-0.7-0.2-1.1-0.2c-0.7,0-1.2,0.3-1.2,0.8v0
			c0,0.5,0.4,0.8,1,0.8C73.5,23,74.1,22.5,74.1,21.9z"/>
		<path class="st0" d="M76.8,22.3v-2.7h-0.6v-1h0.6v-1.4h1.2v1.4h1.4v1h-1.4v2.5c0,0.4,0.2,0.6,0.6,0.6c0.3,0,0.5-0.1,0.7-0.2v0.9
			c-0.3,0.2-0.6,0.3-1,0.3C77.4,23.8,76.8,23.4,76.8,22.3z"/>
		<path class="st0" d="M80,21.2L80,21.2c0-1.5,1.1-2.7,2.7-2.7c1.6,0,2.7,1.2,2.7,2.6v0c0,1.4-1.1,2.6-2.7,2.6
			C81.2,23.8,80,22.7,80,21.2z M84.3,21.2L84.3,21.2c0-0.9-0.6-1.6-1.6-1.6c-0.9,0-1.5,0.7-1.5,1.6v0c0,0.9,0.6,1.6,1.5,1.6
			C83.7,22.8,84.3,22.1,84.3,21.2z"/>
		<path class="st0" d="M86.6,18.7h1.2v1.1c0.3-0.8,0.9-1.3,1.8-1.2v1.2h-0.1c-1,0-1.7,0.7-1.7,2v1.9h-1.2V18.7z"/>
	</g>
</g>
</svg>
